<svg width="757" height="174" viewBox="0 0 757 174" fill="none" xmlns="http://www.w3.org/2000/svg">
<g clip-path="url(#clip0_727_1450)">
<path d="M127.912 107.172L103.066 130.13L55.6056 174H6.10906L77.4471 106.479L72.6025 102.01L0 35H49.71L97.1537 78.788L101.998 83.2575L127.912 107.172Z" fill="#333333"/>
<path d="M206 35L130.951 104.368L105.004 80.4042L152.973 35H206Z" fill="#333333"/>
<path d="M200.318 173.999H150.608L105.923 132.767L130.753 109.793L200.318 173.999Z" fill="#333333"/>
</g>
<path d="M211.854 108V36H225.554L271.754 91V36H283.854V108H270.154L223.854 52.9V108H211.854ZM307.469 108C305.002 108 302.769 107.4 300.769 106.2C298.769 104.933 297.135 103.3 295.869 101.3C294.669 99.3 294.069 97.0667 294.069 94.6V63.4C294.069 60.9333 294.669 58.7 295.869 56.7C297.135 54.7 298.769 53.1 300.769 51.9C302.769 50.6333 305.002 50 307.469 50H339.569C342.102 50 344.369 50.6333 346.369 51.9C348.369 53.1 349.969 54.7 351.169 56.7C352.369 58.7 352.969 60.9333 352.969 63.4V85H305.969V94.2C305.969 94.7333 306.135 95.2 306.469 95.6C306.869 95.9333 307.335 96.1 307.869 96.1H352.969V108H307.469ZM305.969 74.1H341.069V63.8C341.069 63.2667 340.869 62.8333 340.469 62.5C340.135 62.1 339.702 61.9 339.169 61.9H307.869C307.335 61.9 306.869 62.1 306.469 62.5C306.135 62.8333 305.969 63.2667 305.969 63.8V74.1ZM360.952 108V105.3L382.952 78.5L360.952 52.7V50H374.352L390.752 69.3L407.052 50H420.452V52.7L398.452 78.5L420.552 105.3V108H407.152L390.752 87.9L374.352 108H360.952ZM443.216 108C440.749 108 438.482 107.4 436.416 106.2C434.416 104.933 432.816 103.3 431.616 101.3C430.416 99.3 429.816 97.0667 429.816 94.6V50H441.716V94.2C441.716 94.7333 441.882 95.2 442.216 95.6C442.616 95.9333 443.082 96.1 443.616 96.1H474.916C475.449 96.1 475.882 95.9333 476.216 95.6C476.616 95.2 476.816 94.7333 476.816 94.2V50H488.716V94.6C488.716 97.0667 488.116 99.3 486.916 101.3C485.716 103.3 484.116 104.933 482.116 106.2C480.116 107.4 477.849 108 475.316 108H443.216ZM510.391 108C507.925 108 505.691 107.4 503.691 106.2C501.691 104.933 500.058 103.3 498.791 101.3C497.591 99.3 496.991 97.0667 496.991 94.6V92.7H508.891V94.2C508.891 94.7333 509.058 95.2 509.391 95.6C509.791 95.9333 510.258 96.1 510.791 96.1H542.091C542.625 96.1 543.058 95.9333 543.391 95.6C543.791 95.2 543.991 94.7333 543.991 94.2V86.8C543.991 86.3333 543.791 85.9333 543.391 85.6C543.058 85.2 542.625 85 542.091 85H510.391C507.925 85 505.691 84.4 503.691 83.2C501.691 81.9333 500.058 80.3 498.791 78.3C497.591 76.3 496.991 74.0667 496.991 71.6V63.4C496.991 60.9333 497.591 58.7 498.791 56.7C500.058 54.7 501.691 53.1 503.691 51.9C505.691 50.6333 507.925 50 510.391 50H542.491C545.025 50 547.291 50.6333 549.291 51.9C551.291 53.1 552.891 54.7 554.091 56.7C555.358 58.7 555.991 60.9333 555.991 63.4V65.3H543.991V63.8C543.991 63.2667 543.791 62.8333 543.391 62.5C543.058 62.1 542.625 61.9 542.091 61.9H510.791C510.258 61.9 509.791 62.1 509.391 62.5C509.058 62.8333 508.891 63.2667 508.891 63.8V71.2C508.891 71.6667 509.058 72.1 509.391 72.5C509.791 72.8333 510.258 73 510.791 73H542.491C545.025 73 547.291 73.6333 549.291 74.9C551.291 76.1 552.891 77.7 554.091 79.7C555.358 81.7 555.991 83.9333 555.991 86.4V94.6C555.991 97.0667 555.358 99.3 554.091 101.3C552.891 103.3 551.291 104.933 549.291 106.2C547.291 107.4 545.025 108 542.491 108H510.391Z" fill="#333333"/>
<path d="M219.446 163V139.56H211.526V136.76H230.726V139.56H222.806V163H219.446ZM235.452 163V136.76H238.772V147.76H250.972V136.76H254.332V163H250.972V150.64H238.772V163H235.452ZM261.545 163V136.76H276.665V139.56H264.865V147.8H274.825V150.64H264.865V160.16H277.065V163H261.545ZM290.647 163V136.76H305.767V139.56H293.967V148.44H303.967V151.24H293.967V163H290.647ZM319.733 163.48C317.946 163.48 316.333 163.12 314.893 162.4C313.479 161.68 312.359 160.493 311.533 158.84C310.706 157.187 310.293 154.96 310.293 152.16V136.76H313.613V152.24C313.613 154.347 313.879 156.013 314.413 157.24C314.973 158.44 315.706 159.293 316.613 159.8C317.546 160.307 318.586 160.56 319.733 160.56C320.906 160.56 321.959 160.307 322.893 159.8C323.826 159.293 324.559 158.44 325.093 157.24C325.653 156.013 325.933 154.347 325.933 152.24V136.76H329.133V152.16C329.133 154.96 328.719 157.187 327.893 158.84C327.066 160.493 325.946 161.68 324.533 162.4C323.119 163.12 321.519 163.48 319.733 163.48ZM341.634 163V139.56H333.714V136.76H352.914V139.56H344.994V163H341.634ZM366.959 163.48C365.172 163.48 363.559 163.12 362.119 162.4C360.706 161.68 359.586 160.493 358.759 158.84C357.932 157.187 357.519 154.96 357.519 152.16V136.76H360.839V152.24C360.839 154.347 361.106 156.013 361.639 157.24C362.199 158.44 362.932 159.293 363.839 159.8C364.772 160.307 365.812 160.56 366.959 160.56C368.132 160.56 369.186 160.307 370.119 159.8C371.052 159.293 371.786 158.44 372.319 157.24C372.879 156.013 373.159 154.347 373.159 152.24V136.76H376.359V152.16C376.359 154.96 375.946 157.187 375.119 158.84C374.292 160.493 373.172 161.68 371.759 162.4C370.346 163.12 368.746 163.48 366.959 163.48ZM383.42 163V136.76H391.62C393.407 136.76 394.994 137 396.38 137.48C397.767 137.933 398.847 138.707 399.62 139.8C400.42 140.867 400.82 142.307 400.82 144.12C400.82 146.147 400.287 147.787 399.22 149.04C398.154 150.267 396.714 151.107 394.9 151.56L401.58 163H397.82L391.5 151.92H386.74V163H383.42ZM386.74 149.2H391.14C393.194 149.2 394.767 148.787 395.86 147.96C396.954 147.107 397.5 145.827 397.5 144.12C397.5 142.387 396.954 141.173 395.86 140.48C394.767 139.787 393.194 139.44 391.14 139.44H386.74V149.2ZM406.194 163V136.76H421.314V139.56H409.514V147.8H419.474V150.64H409.514V160.16H421.714V163H406.194ZM444.975 163.48C442.789 163.48 440.842 162.92 439.135 161.8C437.455 160.68 436.135 159.093 435.175 157.04C434.242 154.987 433.775 152.56 433.775 149.76C433.775 146.96 434.242 144.56 435.175 142.56C436.135 140.533 437.455 138.987 439.135 137.92C440.842 136.827 442.789 136.28 444.975 136.28C447.189 136.28 449.135 136.827 450.815 137.92C452.495 138.987 453.815 140.533 454.775 142.56C455.735 144.56 456.215 146.96 456.215 149.76C456.215 152.56 455.735 154.987 454.775 157.04C453.815 159.093 452.495 160.68 450.815 161.8C449.135 162.92 447.189 163.48 444.975 163.48ZM444.975 160.56C446.549 160.56 447.909 160.12 449.055 159.24C450.229 158.333 451.135 157.08 451.775 155.48C452.415 153.853 452.735 151.947 452.735 149.76C452.735 146.507 452.029 143.933 450.615 142.04C449.202 140.147 447.322 139.2 444.975 139.2C442.629 139.2 440.749 140.147 439.335 142.04C437.922 143.933 437.215 146.507 437.215 149.76C437.215 151.947 437.535 153.853 438.175 155.48C438.815 157.08 439.722 158.333 440.895 159.24C442.069 160.12 443.429 160.56 444.975 160.56ZM461.858 163V136.76H476.978V139.56H465.178V148.44H475.178V151.24H465.178V163H461.858ZM495.071 163V139.56H487.151V136.76H506.351V139.56H498.431V163H495.071ZM511.077 163V136.76H526.197V139.56H514.397V147.8H524.357V150.64H514.397V160.16H526.597V163H511.077ZM542.09 163.48C539.904 163.48 537.944 162.947 536.21 161.88C534.504 160.787 533.144 159.227 532.13 157.2C531.144 155.173 530.65 152.733 530.65 149.88C530.65 147.053 531.157 144.627 532.17 142.6C533.184 140.573 534.57 139.013 536.33 137.92C538.09 136.827 540.077 136.28 542.29 136.28C543.89 136.28 545.304 136.613 546.53 137.28C547.757 137.92 548.744 138.667 549.49 139.52L547.69 141.68C546.997 140.933 546.21 140.333 545.33 139.88C544.45 139.427 543.45 139.2 542.33 139.2C540.677 139.2 539.224 139.64 537.97 140.52C536.744 141.373 535.784 142.587 535.09 144.16C534.424 145.733 534.09 147.613 534.09 149.8C534.09 151.987 534.424 153.893 535.09 155.52C535.757 157.12 536.69 158.36 537.89 159.24C539.117 160.12 540.557 160.56 542.21 160.56C543.464 160.56 544.584 160.293 545.57 159.76C546.557 159.227 547.464 158.507 548.29 157.6L550.13 159.68C549.09 160.88 547.917 161.813 546.61 162.48C545.304 163.147 543.797 163.48 542.09 163.48ZM555.022 163V136.76H558.342V147.76H570.542V136.76H573.902V163H570.542V150.64H558.342V163H555.022ZM581.116 163V136.76H584.556L594.036 153.24L596.876 158.68H597.036C596.956 157.347 596.862 155.973 596.756 154.56C596.676 153.12 596.636 151.707 596.636 150.32V136.76H599.796V163H596.356L586.836 146.48L583.996 141.08H583.836C583.942 142.387 584.036 143.733 584.116 145.12C584.222 146.507 584.276 147.893 584.276 149.28V163H581.116ZM616.694 163.48C614.507 163.48 612.561 162.92 610.854 161.8C609.174 160.68 607.854 159.093 606.894 157.04C605.961 154.987 605.494 152.56 605.494 149.76C605.494 146.96 605.961 144.56 606.894 142.56C607.854 140.533 609.174 138.987 610.854 137.92C612.561 136.827 614.507 136.28 616.694 136.28C618.907 136.28 620.854 136.827 622.534 137.92C624.214 138.987 625.534 140.533 626.494 142.56C627.454 144.56 627.934 146.96 627.934 149.76C627.934 152.56 627.454 154.987 626.494 157.04C625.534 159.093 624.214 160.68 622.534 161.8C620.854 162.92 618.907 163.48 616.694 163.48ZM616.694 160.56C618.267 160.56 619.627 160.12 620.774 159.24C621.947 158.333 622.854 157.08 623.494 155.48C624.134 153.853 624.454 151.947 624.454 149.76C624.454 146.507 623.747 143.933 622.334 142.04C620.921 140.147 619.041 139.2 616.694 139.2C614.347 139.2 612.467 140.147 611.054 142.04C609.641 143.933 608.934 146.507 608.934 149.76C608.934 151.947 609.254 153.853 609.894 155.48C610.534 157.08 611.441 158.333 612.614 159.24C613.787 160.12 615.147 160.56 616.694 160.56ZM633.577 163V136.76H636.897V160.16H648.377V163H633.577ZM661.655 163.48C659.468 163.48 657.522 162.92 655.815 161.8C654.135 160.68 652.815 159.093 651.855 157.04C650.922 154.987 650.455 152.56 650.455 149.76C650.455 146.96 650.922 144.56 651.855 142.56C652.815 140.533 654.135 138.987 655.815 137.92C657.522 136.827 659.468 136.28 661.655 136.28C663.868 136.28 665.815 136.827 667.495 137.92C669.175 138.987 670.495 140.533 671.455 142.56C672.415 144.56 672.895 146.96 672.895 149.76C672.895 152.56 672.415 154.987 671.455 157.04C670.495 159.093 669.175 160.68 667.495 161.8C665.815 162.92 663.868 163.48 661.655 163.48ZM661.655 160.56C663.228 160.56 664.588 160.12 665.735 159.24C666.908 158.333 667.815 157.08 668.455 155.48C669.095 153.853 669.415 151.947 669.415 149.76C669.415 146.507 668.708 143.933 667.295 142.04C665.882 140.147 664.002 139.2 661.655 139.2C659.308 139.2 657.428 140.147 656.015 142.04C654.602 143.933 653.895 146.507 653.895 149.76C653.895 151.947 654.215 153.853 654.855 155.48C655.495 157.08 656.402 158.333 657.575 159.24C658.748 160.12 660.108 160.56 661.655 160.56ZM688.858 163.48C686.564 163.48 684.524 162.947 682.738 161.88C680.951 160.787 679.551 159.227 678.538 157.2C677.524 155.173 677.018 152.733 677.018 149.88C677.018 147.053 677.538 144.627 678.578 142.6C679.618 140.573 681.044 139.013 682.858 137.92C684.671 136.827 686.738 136.28 689.058 136.28C690.871 136.28 692.391 136.627 693.618 137.32C694.871 137.987 695.871 138.72 696.618 139.52L694.778 141.68C694.111 140.987 693.338 140.4 692.458 139.92C691.578 139.44 690.471 139.2 689.138 139.2C687.378 139.2 685.844 139.64 684.538 140.52C683.231 141.373 682.218 142.587 681.498 144.16C680.804 145.733 680.458 147.613 680.458 149.8C680.458 153.107 681.204 155.733 682.698 157.68C684.218 159.6 686.378 160.56 689.178 160.56C690.111 160.56 691.004 160.427 691.858 160.16C692.711 159.867 693.391 159.48 693.898 159V152.16H688.338V149.4H696.938V160.44C696.111 161.32 694.991 162.053 693.578 162.64C692.191 163.2 690.618 163.48 688.858 163.48ZM703.225 163V136.76H706.545V163H703.225ZM713.733 163V136.76H728.853V139.56H717.053V147.8H727.013V150.64H717.053V160.16H729.253V163H713.733ZM742.107 163.48C740.267 163.48 738.56 163.133 736.987 162.44C735.413 161.72 734.053 160.773 732.907 159.6L734.907 157.28C735.84 158.267 736.933 159.067 738.187 159.68C739.467 160.267 740.787 160.56 742.147 160.56C743.88 160.56 745.227 160.173 746.187 159.4C747.147 158.6 747.627 157.56 747.627 156.28C747.627 155.373 747.427 154.653 747.027 154.12C746.653 153.587 746.133 153.133 745.467 152.76C744.827 152.387 744.093 152.013 743.267 151.64L739.507 150C738.68 149.653 737.853 149.2 737.027 148.64C736.227 148.08 735.547 147.36 734.987 146.48C734.453 145.6 734.187 144.52 734.187 143.24C734.187 141.907 734.533 140.72 735.227 139.68C735.947 138.613 736.933 137.787 738.187 137.2C739.44 136.587 740.853 136.28 742.427 136.28C744 136.28 745.453 136.587 746.787 137.2C748.12 137.787 749.253 138.56 750.187 139.52L748.387 141.68C747.587 140.907 746.693 140.307 745.707 139.88C744.747 139.427 743.653 139.2 742.427 139.2C740.96 139.2 739.773 139.547 738.867 140.24C737.987 140.933 737.547 141.867 737.547 143.04C737.547 143.867 737.76 144.56 738.187 145.12C738.64 145.653 739.2 146.093 739.867 146.44C740.533 146.787 741.213 147.107 741.907 147.4L745.627 149C746.64 149.427 747.547 149.947 748.347 150.56C749.173 151.147 749.827 151.88 750.307 152.76C750.787 153.613 751.027 154.693 751.027 156C751.027 157.387 750.667 158.653 749.947 159.8C749.227 160.92 748.2 161.813 746.867 162.48C745.533 163.147 743.947 163.48 742.107 163.48Z" fill="#333333"/>
<path d="M595.357 99.1H626.157V105H581.957V42.8H595.357V99.1ZM651.823 99.1H668.423C669.69 99.1 670.59 98.8667 671.123 98.4C671.656 97.8667 671.923 97 671.923 95.8V65.7C671.923 64.5 671.656 63.6667 671.123 63.2C670.59 62.6667 669.69 62.4 668.423 62.4H651.823C650.49 62.4 649.623 62.6 649.223 63C648.89 63.4 648.723 64.2333 648.723 65.5V96C648.723 97.3333 648.89 98.2 649.223 98.6C649.623 98.9333 650.49 99.1 651.823 99.1ZM671.923 56.5H684.823V105H671.923V101.9C671.123 103.967 669.256 105 666.323 105H643.723C638.456 105 635.823 102.367 635.823 97.1V64.4C635.823 59.1333 638.456 56.5 643.723 56.5H666.323C669.256 56.5 671.123 57.5333 671.923 59.6V56.5ZM736.983 96V65.5C736.983 64.2333 736.783 63.4 736.383 63C735.983 62.6 735.15 62.4 733.883 62.4H717.283C714.95 62.4 713.783 63.5 713.783 65.7V68.9H713.683V93.3H713.783V95.8C713.783 98 714.95 99.1 717.283 99.1H733.883C735.15 99.1 735.983 98.9333 736.383 98.6C736.783 98.2 736.983 97.3333 736.983 96ZM719.383 56.5H741.983C747.25 56.5 749.883 59.1333 749.883 64.4V97.1C749.883 102.367 747.25 105 741.983 105H719.383C716.383 105 714.483 103.867 713.683 101.6V105H700.783V38.1H713.683V59.9C714.483 57.6333 716.383 56.5 719.383 56.5Z" fill="#333333"/>
<defs>
<clipPath id="clip0_727_1450">
<rect width="206" height="139" fill="white" transform="translate(0 35)"/>
</clipPath>
</defs>
</svg>
