<svg width="52" height="52" viewBox="0 0 52 52" fill="none" xmlns="http://www.w3.org/2000/svg">
<path fill-rule="evenodd" clip-rule="evenodd" d="M3.46667 5.2C3.46667 3.82087 4.01453 2.49823 4.98972 1.52304C5.96491 0.547856 7.28755 0 8.66667 0L43.3333 0C44.7125 0 46.0351 0.547856 47.0103 1.52304C47.9855 2.49823 48.5333 3.82087 48.5333 5.2V46.8C48.5333 48.1791 47.9855 49.5018 47.0103 50.477C46.0351 51.4521 44.7125 52 43.3333 52H8.66667C7.28755 52 5.96491 51.4521 4.98972 50.477C4.01453 49.5018 3.46667 48.1791 3.46667 46.8V5.2ZM20.8 41.6H31.2V38.1333H20.8V41.6Z" fill="#171717"/>
</svg>
