<svg width="52" height="52" viewBox="0 0 52 52" fill="none" xmlns="http://www.w3.org/2000/svg">
<path d="M26 2.16602L6.5 10.8327V23.8327C6.5 35.8577 14.82 47.1027 26 49.8327C37.18 47.1027 45.5 35.8577 45.5 23.8327V10.8327L26 2.16602ZM26 10.616C27.2856 10.616 28.5423 10.9972 29.6112 11.7115C30.6801 12.4257 31.5132 13.4409 32.0052 14.6286C32.4972 15.8163 32.6259 17.1232 32.3751 18.3841C32.1243 19.645 31.5052 20.8032 30.5962 21.7122C29.6872 22.6213 28.529 23.2403 27.2681 23.4911C26.0072 23.7419 24.7003 23.6132 23.5126 23.1212C22.3248 22.6293 21.3097 21.7961 20.5954 20.7272C19.8812 19.6583 19.5 18.4016 19.5 17.116C19.5 15.3921 20.1848 13.7388 21.4038 12.5198C22.6228 11.3008 24.2761 10.616 26 10.616ZM26 27.7327C30.3333 27.7327 39 30.0944 39 34.406C37.577 36.5513 35.6452 38.311 33.3769 39.5284C31.1086 40.7457 28.5743 41.3828 26 41.3828C23.4257 41.3828 20.8914 40.7457 18.6231 39.5284C16.3548 38.311 14.423 36.5513 13 34.406C13 30.0944 21.6667 27.7327 26 27.7327Z" fill="#171717"/>
</svg>
