<svg width="52" height="52" viewBox="0 0 52 52" fill="none" xmlns="http://www.w3.org/2000/svg">
<path d="M46.8 31.1992H41.132C40.69 33.0192 39.988 34.7092 39.026 36.2172L43.03 40.2212L37.57 45.6812L33.566 41.6772C32.058 42.6132 30.368 43.3152 28.6 43.7312V49.3992H20.8V43.7312C19.032 43.3152 17.342 42.6132 15.834 41.6772L11.83 45.6812L6.31798 40.1692L10.322 36.1652C9.38598 34.6572 8.68398 32.9672 8.26798 31.1992H2.59998V23.4772H8.24198C8.65798 21.6572 9.38598 19.9672 10.322 18.4332L6.31798 14.4292L11.778 8.96922L15.782 12.9732C17.29 12.0112 19.006 11.3092 20.8 10.8672V5.19922H28.6V10.8672C30.368 11.2832 32.058 11.9852 33.566 12.9212L37.57 8.91722L43.082 14.4292L39.078 18.4332C40.014 19.9672 40.742 21.6572 41.158 23.4772H46.8V31.1992ZM24.7 35.0992C29.016 35.0992 32.5 31.6152 32.5 27.2992C32.5 22.9832 29.016 19.4992 24.7 19.4992C20.384 19.4992 16.9 22.9832 16.9 27.2992C16.9 31.6152 20.384 35.0992 24.7 35.0992Z" fill="#171717"/>
</svg>
