<svg width="52" height="52" viewBox="0 0 52 52" fill="none" xmlns="http://www.w3.org/2000/svg">
<path d="M5.05558 34.334C3.7082 36.1645 3.08119 38.4266 3.29398 40.6895C3.50677 42.9524 4.54448 45.058 6.20947 46.6052C7.87446 48.1524 10.0504 49.0331 12.3228 49.0796C14.5952 49.1261 16.8054 48.3351 18.5322 46.8573C15.3127 46.3033 12.3241 44.8241 9.93103 42.6003C7.53795 40.3765 5.84389 37.5043 5.05558 34.334Z" fill="#171717"/>
<path d="M11.0934 20.9883C8.72594 23.6071 7.44649 27.0302 7.51586 30.5598C7.58524 34.0894 8.99821 37.4597 11.4667 39.9834C13.9352 42.5072 17.2733 43.9944 20.8005 44.1419C24.3277 44.2894 27.7783 43.086 30.4489 40.7772C25.324 40.521 20.4843 38.341 16.8963 34.6727C13.3083 31.0044 11.2361 26.1176 11.0934 20.9883Z" fill="#171717"/>
<path d="M31.4601 2.88867C34.9207 2.88868 38.3037 3.91435 41.1818 5.83609C44.0598 7.75784 46.3037 10.4895 47.63 13.6859C48.9563 16.8823 49.3055 20.4 48.6335 23.7948C47.9615 27.1896 46.2984 30.309 43.8544 32.7591C41.4104 35.2092 38.2951 36.8799 34.902 37.5603C31.5089 38.2407 27.9902 37.9002 24.7905 36.5818C21.5909 35.2634 18.8537 33.0263 16.9249 30.153C14.996 27.2798 13.962 23.8993 13.9534 20.4387C13.9477 18.136 14.3963 15.8549 15.2736 13.7259C16.1508 11.5968 17.4394 9.6618 19.0657 8.03157C20.6919 6.40133 22.6237 5.10792 24.7506 4.22542C26.8774 3.34292 29.1574 2.88866 31.4601 2.88867Z" fill="#171717"/>
</svg>
