<svg width="52" height="52" viewBox="0 0 52 52" fill="none" xmlns="http://www.w3.org/2000/svg">
<path d="M28.73 22.75H33.0633V24.9167H28.73V22.75Z" fill="#171717"/>
<path d="M43.3334 8.66602H8.66671C7.51744 8.66602 6.41524 9.12256 5.60258 9.93522C4.78992 10.7479 4.33337 11.8501 4.33337 12.9993V38.9994C4.33337 40.1486 4.78992 41.2508 5.60258 42.0635C6.41524 42.8761 7.51744 43.3327 8.66671 43.3327H43.3334C44.4826 43.3327 45.5848 42.8761 46.3975 42.0635C47.2102 41.2508 47.6667 40.1486 47.6667 38.9994V12.9993C47.6667 11.8501 47.2102 10.7479 46.3975 9.93522C45.5848 9.12256 44.4826 8.66602 43.3334 8.66602ZM18.2 32.4993L17.3334 29.8344H13.13L12.1767 32.4993H8.66671L13.4334 19.4993H16.9434L21.6667 32.4993H18.2ZM36.3134 24.916C36.3222 25.3452 36.2442 25.7718 36.084 26.1701C35.9238 26.5684 35.6848 26.9303 35.3812 27.2338C35.0776 27.5374 34.7158 27.7765 34.3175 27.9367C33.9192 28.0969 33.4926 28.1749 33.0634 28.166H28.73V32.4993H25.48V19.4993H33.0634C33.4926 19.4905 33.9192 19.5685 34.3175 19.7287C34.7158 19.8889 35.0776 20.128 35.3812 20.4315C35.6848 20.7351 35.9238 21.0969 36.084 21.4952C36.2442 21.8935 36.3222 22.3201 36.3134 22.7493V24.916ZM43.3334 32.4993H40.0834V19.4993H43.3334V32.4993Z" fill="#171717"/>
<path d="M13.9316 27.6677H16.445L15.1883 24.2227L13.9316 27.6677Z" fill="#171717"/>
</svg>
