<svg width="52" height="52" viewBox="0 0 52 52" fill="none" xmlns="http://www.w3.org/2000/svg">
<path d="M17.6193 5.42578L9.57661 19.5004H6.49994C6.16691 19.5008 5.83845 19.5779 5.54 19.7256C5.24155 19.8734 4.98114 20.0879 4.77896 20.3525C4.57677 20.6172 4.43824 20.9248 4.3741 21.2516C4.30996 21.5784 4.32194 21.9155 4.4091 22.2369L10.4736 44.4734C10.725 45.3901 11.2702 46.1989 12.0256 46.7758C12.781 47.3528 13.7048 47.6659 14.6553 47.6671H37.3468C39.2924 47.6671 41.0128 46.3563 41.5284 44.4713L47.5929 22.2348C47.6811 21.9133 47.6938 21.5757 47.6299 21.2485C47.566 20.9212 47.4273 20.6132 47.2247 20.3485C47.022 20.0837 46.7609 19.8694 46.4617 19.7223C46.1625 19.5752 45.8333 19.4993 45.4999 19.5004H42.4233L34.3806 5.42578L30.6193 7.57511L37.4334 19.5004H14.5664L21.3806 7.57511L17.6193 5.42578ZM30.3333 28.1671H34.6666V39.0004H30.3333V28.1671ZM17.3333 28.1671H21.6666V39.0004H17.3333V28.1671Z" fill="#171717"/>
</svg>
