<svg width="52" height="52" viewBox="0 0 52 52" fill="none" xmlns="http://www.w3.org/2000/svg">
<g clip-path="url(#clip0_785_1445)">
<path d="M19.5 3.25C19.5 5.04766 20.9523 6.5 22.75 6.5C35.3133 6.5 45.5 16.6867 45.5 29.25C45.5 31.0477 46.9523 32.5 48.75 32.5C50.5477 32.5 52 31.0477 52 29.25C52 13.0914 38.9086 0 22.75 0C20.9523 0 19.5 1.45234 19.5 3.25ZM19.5 13C19.5 14.7977 20.9523 16.25 22.75 16.25C29.9305 16.25 35.75 22.0695 35.75 29.25C35.75 31.0477 37.2023 32.5 39 32.5C40.7977 32.5 42.25 31.0477 42.25 29.25C42.25 18.4844 33.5156 9.75 22.75 9.75C20.9523 9.75 19.5 11.2023 19.5 13ZM9.75 14.625C9.75 11.9336 7.56641 9.75 4.875 9.75C2.18359 9.75 0 11.9336 0 14.625V37.375C0 45.4492 6.55078 52 14.625 52C22.6992 52 29.25 45.4492 29.25 37.375C29.25 29.3008 22.6992 22.75 14.625 22.75H13V32.5H14.625C17.3164 32.5 19.5 34.6836 19.5 37.375C19.5 40.0664 17.3164 42.25 14.625 42.25C11.9336 42.25 9.75 40.0664 9.75 37.375V14.625Z" fill="#171717"/>
</g>
<defs>
<clipPath id="clip0_785_1445">
<rect width="52" height="52" fill="white"/>
</clipPath>
</defs>
</svg>
