<svg width="52" height="52" viewBox="0 0 52 52" fill="none" xmlns="http://www.w3.org/2000/svg">
<path d="M23.166 5.4707C9.48168 5.4707 0 16.4183 0 21.8923C0 27.3653 2.73676 31.4707 8.2108 31.4707C13.6843 31.4707 16.4211 32.8388 16.4211 36.9442C16.4211 42.4183 20.5265 46.5231 25.9995 46.5231C43.7892 46.5231 51.9995 36.9447 51.9995 27.3653C51.9995 10.9442 39.5871 5.4707 23.166 5.4707ZM19.5135 10.9442C19.9664 10.9386 20.4158 11.023 20.8358 11.1924C21.2558 11.3619 21.638 11.613 21.9602 11.9313C22.2824 12.2495 22.5382 12.6286 22.7128 13.0464C22.8874 13.4643 22.9773 13.9127 22.9773 14.3656C22.9773 14.8184 22.8874 15.2668 22.7128 15.6847C22.5382 16.1026 22.2824 16.4816 21.9602 16.7999C21.638 17.1181 21.2558 17.3692 20.8358 17.5387C20.4158 17.7081 19.9664 17.7925 19.5135 17.7869C18.6134 17.7758 17.754 17.4105 17.1214 16.77C16.4888 16.1296 16.1341 15.2657 16.1341 14.3656C16.1341 13.4654 16.4888 12.6015 17.1214 11.9611C17.754 11.3207 18.6134 10.9553 19.5135 10.9442ZM30.4611 10.9442C30.9139 10.9386 31.3634 11.023 31.7834 11.1924C32.2034 11.3619 32.5855 11.613 32.9077 11.9313C33.2299 12.2495 33.4858 12.6286 33.6604 13.0464C33.835 13.4643 33.9249 13.9127 33.9249 14.3656C33.9249 14.8184 33.835 15.2668 33.6604 15.6847C33.4858 16.1026 33.2299 16.4816 32.9077 16.7999C32.5855 17.1181 32.2034 17.3692 31.7834 17.5387C31.3634 17.7081 30.9139 17.7925 30.4611 17.7869C29.561 17.7758 28.7015 17.4105 28.069 16.77C27.4364 16.1296 27.0817 15.2657 27.0817 14.3656C27.0817 13.4654 27.4364 12.6015 28.069 11.9611C28.7015 11.3207 29.561 10.9553 30.4611 10.9442ZM40.3676 16.4183C40.8204 16.4127 41.2698 16.497 41.6897 16.6664C42.1096 16.8359 42.4917 17.0869 42.8139 17.4051C43.136 17.7234 43.3918 18.1024 43.5664 18.5202C43.741 18.938 43.8309 19.3863 43.8309 19.8391C43.8309 20.2919 43.741 20.7402 43.5664 21.158C43.3918 21.5758 43.136 21.9548 42.8139 22.273C42.4917 22.5912 42.1096 22.8423 41.6897 23.0117C41.2698 23.1811 40.8204 23.2655 40.3676 23.2599C39.4676 23.2488 38.6083 22.8835 37.9758 22.2432C37.3434 21.6029 36.9887 20.7391 36.9887 19.8391C36.9887 18.9391 37.3434 18.0753 37.9758 17.435C38.6083 16.7947 39.4676 16.4294 40.3676 16.4183ZM9.93408 17.075C10.3884 17.0671 10.8397 17.1497 11.2617 17.3181C11.6837 17.4865 12.0679 17.7372 12.392 18.0557C12.716 18.3741 12.9734 18.7539 13.1491 19.1729C13.3248 19.592 13.4153 20.0418 13.4153 20.4961C13.4153 20.9505 13.3248 21.4003 13.1491 21.8193C12.9734 22.2383 12.716 22.6181 12.392 22.9365C12.0679 23.255 11.6837 23.5057 11.2617 23.6741C10.8397 23.8425 10.3884 23.9251 9.93408 23.9172C9.03708 23.9015 8.18211 23.5342 7.5533 22.8944C6.92448 22.2545 6.57213 21.3932 6.57213 20.4961C6.57213 19.599 6.92448 18.7377 7.5533 18.0979C8.18211 17.458 9.03708 17.0907 9.93408 17.075ZM28.08 32.8388C29.1688 32.8388 30.213 33.2714 30.983 34.0413C31.7529 34.8112 32.1854 35.8554 32.1854 36.9442C32.1854 39.2114 29.3072 41.0496 27.04 41.0496C25.9512 41.0496 24.907 40.6171 24.137 39.8472C23.3671 39.0773 22.9346 38.033 22.9346 36.9442C22.9346 34.677 25.8128 32.8388 28.08 32.8388Z" fill="#171717"/>
</svg>
