<svg width="52" height="52" viewBox="0 0 52 52" fill="none" xmlns="http://www.w3.org/2000/svg">
<path d="M26 28.1667C28.0944 28.1667 29.882 27.4264 31.3625 25.9458C32.8431 24.4653 33.5833 22.6778 33.5833 20.5833C33.5833 18.4889 32.8431 16.7014 31.3625 15.2208C29.882 13.7403 28.0944 13 26 13C23.9056 13 22.1181 13.7403 20.6375 15.2208C19.1569 16.7014 18.4167 18.4889 18.4167 20.5833C18.4167 22.6778 19.1569 24.4653 20.6375 25.9458C22.1181 27.4264 23.9056 28.1667 26 28.1667ZM10.8333 45.5C9.64167 45.5 8.62117 45.0753 7.77184 44.226C6.9225 43.3767 6.49856 42.3569 6.5 41.1667V10.8333C6.5 9.64167 6.92467 8.62117 7.774 7.77184C8.62334 6.9225 9.64311 6.49856 10.8333 6.5H41.1667C42.3583 6.5 43.3788 6.92467 44.2282 7.774C45.0775 8.62334 45.5015 9.64311 45.5 10.8333V41.1667C45.5 42.3583 45.0753 43.3788 44.226 44.2282C43.3767 45.0775 42.3569 45.5015 41.1667 45.5H10.8333ZM10.8333 41.1667H41.1667V38.675C39.2167 36.7611 36.9503 35.2538 34.3677 34.1532C31.785 33.0525 28.9958 32.5014 26 32.5C23.0028 32.5 20.2128 33.0511 17.6302 34.1532C15.0475 35.2553 12.7819 36.7626 10.8333 38.675V41.1667Z" fill="#171717"/>
</svg>
