<svg width="52" height="52" viewBox="0 0 52 52" fill="none" xmlns="http://www.w3.org/2000/svg">
<path d="M37.4292 43.875L44.9583 36.4L42.6833 34.125L37.4292 39.2708L35.3167 37.1583L33.0417 39.4875L37.4292 43.875ZM13 19.5H39V15.1667H13V19.5ZM39 49.8333C36.0028 49.8333 33.4476 48.7767 31.3343 46.6635C29.2211 44.5503 28.1652 41.9958 28.1667 39C28.1667 36.0028 29.2233 33.4476 31.3365 31.3343C33.4497 29.2211 36.0042 28.1652 39 28.1667C41.9972 28.1667 44.5524 29.2233 46.6657 31.3365C48.7789 33.4497 49.8348 36.0042 49.8333 39C49.8333 41.9972 48.7767 44.5524 46.6635 46.6657C44.5503 48.7789 41.9958 49.8348 39 49.8333ZM6.5 47.6667V10.8333C6.5 9.64167 6.92467 8.62117 7.774 7.77184C8.62333 6.9225 9.64311 6.49856 10.8333 6.5H41.1667C42.3583 6.5 43.3788 6.92467 44.2282 7.774C45.0775 8.62334 45.5014 9.64311 45.5 10.8333V25.2958C44.4889 24.7903 43.4323 24.4198 42.3302 24.1843C41.2281 23.9489 40.118 23.8319 39 23.8333H13V28.1667H28.3833C27.7694 28.7806 27.2011 29.4486 26.6782 30.1708C26.1553 30.8931 25.6945 31.6694 25.2958 32.5H13V36.8333H23.9958C23.9236 37.1944 23.8781 37.5469 23.8593 37.8907C23.8406 38.2344 23.8319 38.6042 23.8333 39C23.8333 40.5167 24.0413 41.9705 24.4573 43.3615C24.8733 44.7525 25.4959 46.0792 26.325 47.3417L26 47.6667L22.75 44.4167L19.5 47.6667L16.25 44.4167L13 47.6667L9.75 44.4167L6.5 47.6667Z" fill="#171717"/>
</svg>
