<svg width="52" height="52" viewBox="0 0 52 52" fill="none" xmlns="http://www.w3.org/2000/svg">
<path d="M36.8442 34.6732H41.1775V8.67318H19.5109V13.0065H36.8442V34.6732ZM36.8442 39.0065V45.5065C36.8442 46.7025 35.8692 47.6732 34.6624 47.6732H8.6927C8.40697 47.6749 8.12372 47.6201 7.85923 47.512C7.59473 47.4039 7.3542 47.2447 7.15146 47.0433C6.94871 46.842 6.78775 46.6026 6.67782 46.3388C6.56788 46.0751 6.51114 45.7922 6.51086 45.5065L6.5152 15.1732C6.5152 13.9772 7.4902 13.0065 8.69703 13.0065H15.1754V6.50651C15.1754 5.93187 15.4036 5.38077 15.81 4.97445C16.2163 4.56812 16.7674 4.33984 17.342 4.33984H43.342C43.9167 4.33984 44.4678 4.56812 44.8741 4.97445C45.2804 5.38077 45.5087 5.93187 45.5087 6.50651V36.8398C45.5087 37.4145 45.2804 37.9656 44.8741 38.3719C44.4678 38.7782 43.9167 39.0065 43.342 39.0065H36.8442ZM15.1775 34.6732V39.0065H19.5109V41.1732H23.8442V39.0065H24.9275C26.3641 39.0065 27.7419 38.4358 28.7577 37.42C29.7735 36.4042 30.3442 35.0264 30.3442 33.5898C30.3442 32.1533 29.7735 30.7755 28.7577 29.7597C27.7419 28.7439 26.3641 28.1732 24.9275 28.1732H18.4275C18.1402 28.1732 17.8647 28.059 17.6615 27.8559C17.4583 27.6527 17.3442 27.3772 17.3442 27.0898C17.3442 26.8025 17.4583 26.527 17.6615 26.3238C17.8647 26.1206 18.1402 26.0065 18.4275 26.0065H28.1775V21.6732H23.8442V19.5065H19.5109V21.6732H18.4275C16.9909 21.6732 15.6132 22.2439 14.5974 23.2597C13.5815 24.2755 13.0109 25.6533 13.0109 27.0898C13.0109 28.5264 13.5815 29.9042 14.5974 30.92C15.6132 31.9358 16.9909 32.5065 18.4275 32.5065H24.9275C25.2148 32.5065 25.4904 32.6206 25.6936 32.8238C25.8967 33.027 26.0109 33.3025 26.0109 33.5898C26.0109 33.8772 25.8967 34.1527 25.6936 34.3559C25.4904 34.559 25.2148 34.6732 24.9275 34.6732H15.1775Z" fill="#171717"/>
</svg>
