<svg width="52" height="52" viewBox="0 0 52 52" fill="none" xmlns="http://www.w3.org/2000/svg">
<path d="M25.9782 4.33398C14.0183 4.33398 4.33325 14.0407 4.33325 26.0006C4.33325 37.9606 14.0183 47.6673 25.9782 47.6673C37.9599 47.6673 47.6666 37.9606 47.6666 26.0006C47.6666 14.0407 37.9599 4.33398 25.9782 4.33398ZM40.9932 17.334H34.6016C33.9235 14.6505 32.9193 12.0601 31.6116 9.62065C35.5638 10.9813 38.8941 13.7194 40.9932 17.334ZM25.9999 8.75398C27.7983 11.354 29.2066 14.2357 30.1382 17.334H21.8616C22.7933 14.2357 24.2016 11.354 25.9999 8.75398ZM9.22992 30.334C8.88325 28.9473 8.66658 27.4956 8.66658 26.0006C8.66658 24.5056 8.88325 23.054 9.22992 21.6673H16.5533C16.3799 23.0973 16.2499 24.5273 16.2499 26.0006C16.2499 27.474 16.3799 28.904 16.5533 30.334H9.22992ZM11.0066 34.6673H17.3983C18.0916 37.3756 19.0883 39.9756 20.3883 42.3806C16.4318 41.0274 13.0992 38.2874 11.0066 34.6673ZM17.3983 17.334H11.0066C13.0992 13.7139 16.4318 10.9739 20.3883 9.62065C19.0805 12.0601 18.0764 14.6505 17.3983 17.334ZM25.9999 43.2473C24.2016 40.6473 22.7933 37.7656 21.8616 34.6673H30.1382C29.2066 37.7656 27.7983 40.6473 25.9999 43.2473ZM31.0699 30.334H20.9299C20.7349 28.904 20.5833 27.474 20.5833 26.0006C20.5833 24.5273 20.7349 23.0756 20.9299 21.6673H31.0699C31.2649 23.0756 31.4166 24.5273 31.4166 26.0006C31.4166 27.474 31.2649 28.904 31.0699 30.334ZM31.6116 42.3806C32.9116 39.9756 33.9083 37.3756 34.6016 34.6673H40.9932C38.8941 38.2819 35.5638 41.02 31.6116 42.3806ZM35.4466 30.334C35.6199 28.904 35.7499 27.474 35.7499 26.0006C35.7499 24.5273 35.6199 23.0973 35.4466 21.6673H42.7699C43.1166 23.054 43.3332 24.5056 43.3332 26.0006C43.3332 27.4956 43.1166 28.9473 42.7699 30.334H35.4466Z" fill="#171717"/>
</svg>
