<svg width="52" height="52" viewBox="0 0 52 52" fill="none" xmlns="http://www.w3.org/2000/svg">
<path d="M10.5625 8.125C8.6231 8.125 6.76314 8.89542 5.39178 10.2668C4.02042 11.6381 3.25 13.4981 3.25 15.4375V17.875H48.75V15.4375C48.75 13.4981 47.9796 11.6381 46.6082 10.2668C45.2369 8.89542 43.3769 8.125 41.4375 8.125H10.5625ZM3.25 36.5625V21.125H48.75V36.5625C48.75 38.5019 47.9796 40.3619 46.6082 41.7332C45.2369 43.1046 43.3769 43.875 41.4375 43.875H10.5625C8.6231 43.875 6.76314 43.1046 5.39178 41.7332C4.02042 40.3619 3.25 38.5019 3.25 36.5625ZM34.125 30.875C33.694 30.875 33.2807 31.0462 32.976 31.351C32.6712 31.6557 32.5 32.069 32.5 32.5C32.5 32.931 32.6712 33.3443 32.976 33.649C33.2807 33.9538 33.694 34.125 34.125 34.125H39C39.431 34.125 39.8443 33.9538 40.149 33.649C40.4538 33.3443 40.625 32.931 40.625 32.5C40.625 32.069 40.4538 31.6557 40.149 31.351C39.8443 31.0462 39.431 30.875 39 30.875H34.125Z" fill="#171717"/>
</svg>
