<svg width="52" height="52" viewBox="0 0 52 52" fill="none" xmlns="http://www.w3.org/2000/svg">
<path d="M8.66659 39H12.9999V47.8422L24.0521 39H34.6666C37.0564 39 38.9999 37.0565 38.9999 34.6667V17.3333C38.9999 14.9435 37.0564 13 34.6666 13H8.66659C6.27675 13 4.33325 14.9435 4.33325 17.3333V34.6667C4.33325 37.0565 6.27675 39 8.66659 39Z" fill="#171717"/>
<path d="M43.3333 4.33398H17.3333C14.9435 4.33398 13 6.27748 13 8.66732H39C41.3898 8.66732 43.3333 10.6108 43.3333 13.0007V30.334C45.7232 30.334 47.6667 28.3905 47.6667 26.0007V8.66732C47.6667 6.27748 45.7232 4.33398 43.3333 4.33398Z" fill="#171717"/>
</svg>
